<?xml version="1.0" encoding="UTF-8" standalone="no"?>
<!-- Created with Inkscape (http://www.inkscape.org/) -->

<svg
   width="48"
   height="48"
   viewBox="0 0 12.7 12.7"
   version="1.1"
   id="svg1"
   xml:space="preserve"
   xmlns="http://www.w3.org/2000/svg"
   xmlns:svg="http://www.w3.org/2000/svg"><defs
     id="defs1" /><g
     id="layer1"><rect
       style="fill:#ff0033;fill-opacity:1;fill-rule:nonzero;stroke-width:0.264583"
       id="rect1"
       width="14.663864"
       height="13.538498"
       x="-0.85255021"
       y="-0.15345906" /><path
       fill="currentColor"
       d="M 4.8921859,2.2195254 V 1.2476496 H 7.8078137 V 2.2195254 Z M 5.8640618,7.5648432 H 6.8359377 V 4.6492153 H 5.8640618 Z m 0.4859379,3.8875048 q -0.8989852,0 -1.6949516,-0.345988 Q 3.8590816,10.760372 3.2642936,10.164612 2.6695055,9.5688513 2.3230318,8.7733709 1.976558,7.9778904 1.976558,7.0789052 q 0,-0.8989853 0.3464738,-1.6949517 Q 2.6695055,4.5879871 3.2642936,3.9931991 3.8590816,3.398411 4.655534,3.0519372 5.4519864,2.7054634 6.3499997,2.7054634 q 0.753204,0 1.4456655,0.2429691 0.6924617,0.2429689 1.2998841,0.70461 L 9.7758622,2.9727294 10.456176,3.6530425 9.7758622,4.3333557 q 0.4616418,0.6074224 0.7046108,1.299884 0.242969,0.6924617 0.242969,1.4456655 0,0.8989852 -0.346474,1.6949516 Q 10.030494,9.5698233 9.4357058,10.164612 8.8409178,10.7594 8.0444654,11.10636 7.2480132,11.453319 6.3499997,11.452348 m 0,-0.971877 q 1.4092202,0 2.4053929,-0.9961729 0.9961729,-0.9961728 0.9961729,-2.4053929 0,-1.4092201 -0.9961729,-2.405393 -0.9961727,-0.9961728 -2.4053929,-0.9961728 -1.40922,0 -2.4053929,0.9961728 -0.9961728,0.9961729 -0.9961728,2.405393 0,1.4092201 0.9961728,2.4053929 0.9961729,0.9961729 2.4053929,0.9961729 m 0,-3.4015658"
       id="path1"
       style="fill:#ffffff;fill-opacity:1;stroke-width:0.485938" /></g></svg>
